<svg fill="none" height="92" viewBox="0 0 92 92" width="92" xmlns="http://www.w3.org/2000/svg"><path clip-rule="evenodd" d="m72.1482 31.9543c.385-1.2093 0-2.0979-1.8328-2.0979h-6.0603c-1.5409 0-2.2513.7677-2.6366 1.6141 0 0-3.0819 7.0744-7.4478 11.6696-1.4125 1.3302-2.0546 1.7534-2.8251 1.7534-.3851 0-.9428-.4232-.9428-1.6324v-11.3067c0-1.4512-.4472-2.098-1.7314-2.098h-9.5234c-.9629 0-1.5421.6736-1.5421 1.3119 0 1.3757 2.1829 1.6929 2.4079 5.5627v8.4045c0 1.8426-.3534 2.1767-1.1238 2.1767-2.0545 0-7.0521-7.1059-10.0161-15.237-.5808-1.5804-1.1634-2.2188-2.7123-2.2188h-6.0603c-1.7315 0-2.0779.7677-2.0779 1.6141 0 1.5117 2.0546 9.0093 9.5665 18.9253 5.0079 6.7719 12.0637 10.4428 18.4842 10.4428 3.8523 0 4.3288-.8153 4.3288-2.2197v-5.1182c0-1.6306.365-1.9561 1.5849-1.9561.8988 0 2.4397.4233 6.0353 3.6883 4.109 3.8697 4.7865 5.6057 7.0978 5.6057h6.0603c1.7315 0 2.5973-.8153 2.0978-2.4243-.5465-1.6036-2.5084-3.9303-5.1116-6.6883-1.4125-1.572-3.5313-3.265-4.1734-4.1116-.8988-1.0882-.642-1.5721 0-2.5394 0 0 7.3837-9.7952 8.1542-13.1207z" fill="#2787f5" fill-rule="evenodd"/></svg>